<svg width="20" height="20" viewBox="0 0 20 20" fill="none" xmlns="http://www.w3.org/2000/svg">
<path d="M4.45833 17.125C4.02292 17.125 3.65017 16.97 3.3401 16.6599C3.03003 16.3498 2.875 15.9771 2.875 15.5417V4.45833C2.875 4.02292 3.03003 3.65017 3.3401 3.3401C3.65017 3.03003 4.02292 2.875 4.45833 2.875H15.5417C15.9771 2.875 16.3498 3.03003 16.6599 3.3401C16.97 3.65017 17.125 4.02292 17.125 4.45833V15.5417C17.125 15.9771 16.97 16.3498 16.6599 16.6599C16.3498 16.97 15.9771 17.125 15.5417 17.125H4.45833ZM4.45833 15.5417H9.20833V4.45833H4.45833V15.5417ZM10.7917 15.5417H15.5417V10H10.7917V15.5417ZM10.7917 8.41667H15.5417V4.45833H10.7917V8.41667Z" fill="#2B2064"/>
</svg>
