<svg width="20" height="20" viewBox="0 0 20 20" fill="none" xmlns="http://www.w3.org/2000/svg">
<g clip-path="url(#clip0_1_794)">
<path d="M15.8333 4.16667H13.3333V3.33334C13.3333 2.67029 13.0699 2.03441 12.6011 1.56557C12.1323 1.09673 11.4964 0.833336 10.8333 0.833336H9.16667C8.50362 0.833336 7.86774 1.09673 7.3989 1.56557C6.93006 2.03441 6.66667 2.67029 6.66667 3.33334V4.16667H4.16667C3.062 4.16799 2.00296 4.6074 1.22185 5.38852C0.440735 6.16963 0.00132321 7.22867 0 8.33334L0 15C0.00132321 16.1047 0.440735 17.1637 1.22185 17.9448C2.00296 18.7259 3.062 19.1653 4.16667 19.1667H15.8333C16.938 19.1653 17.997 18.7259 18.7782 17.9448C19.5593 17.1637 19.9987 16.1047 20 15V8.33334C19.9987 7.22867 19.5593 6.16963 18.7782 5.38852C17.997 4.6074 16.938 4.16799 15.8333 4.16667ZM8.33333 3.33334C8.33333 3.11232 8.42113 2.90036 8.57741 2.74408C8.73369 2.5878 8.94565 2.5 9.16667 2.5H10.8333C11.0543 2.5 11.2663 2.5878 11.4226 2.74408C11.5789 2.90036 11.6667 3.11232 11.6667 3.33334V4.16667H8.33333V3.33334ZM12.5 12.5H10.8333V14.1667C10.8333 14.3877 10.7455 14.5996 10.5893 14.7559C10.433 14.9122 10.221 15 10 15C9.77899 15 9.56702 14.9122 9.41074 14.7559C9.25446 14.5996 9.16667 14.3877 9.16667 14.1667V12.5H7.5C7.27899 12.5 7.06702 12.4122 6.91074 12.2559C6.75446 12.0996 6.66667 11.8877 6.66667 11.6667C6.66667 11.4457 6.75446 11.2337 6.91074 11.0774C7.06702 10.9211 7.27899 10.8333 7.5 10.8333H9.16667V9.16667C9.16667 8.94566 9.25446 8.73369 9.41074 8.57741C9.56702 8.42113 9.77899 8.33334 10 8.33334C10.221 8.33334 10.433 8.42113 10.5893 8.57741C10.7455 8.73369 10.8333 8.94566 10.8333 9.16667V10.8333H12.5C12.721 10.8333 12.933 10.9211 13.0893 11.0774C13.2455 11.2337 13.3333 11.4457 13.3333 11.6667C13.3333 11.8877 13.2455 12.0996 13.0893 12.2559C12.933 12.4122 12.721 12.5 12.5 12.5Z" fill="#2B2064"/>
</g>
<defs>
<clipPath id="clip0_1_794">
<rect width="20" height="20" fill="white"/>
</clipPath>
</defs>
</svg>
