<svg width="22" height="22" viewBox="0 0 22 22" fill="none" xmlns="http://www.w3.org/2000/svg">
<path d="M16.1997 0C16.6415 0 17.0004 0.358067 17.0005 0.799805C17.0005 1.24163 16.6415 1.59961 16.1997 1.59961H16.0005V7.42871L21.5268 17C22.2964 18.3333 21.3339 19.9999 19.7944 20H4.20555C2.66612 19.9998 1.70435 18.3332 2.4741 17L8.00047 7.42676V1.59961H7.80027C7.35845 1.59961 7.00047 1.24163 7.00047 0.799805C7.00058 0.358067 7.35851 0 7.80027 0H16.1997Z" fill="#2B2064"/>
<path d="M17 13.3C17.4418 13.3 17.8 12.9418 17.8 12.5C17.8 12.0582 17.4418 11.7 17 11.7V13.3ZM5 12.5V13.3H17V12.5V11.7H5V12.5Z" fill="white"/>
<mask id="path-3-outside-1_1_796" maskUnits="userSpaceOnUse" x="0" y="2" width="11" height="20" fill="black">
<rect fill="white" y="2" width="11" height="20"/>
<path d="M8.2002 4C8.64187 4.00011 8.99989 4.35813 9 4.7998C9 5.24157 8.64193 5.5995 8.2002 5.59961H8.125V17.375C8.125 18.8247 6.94975 20 5.5 20C4.05025 20 2.875 18.8247 2.875 17.375V5.59961H2.7998C2.35807 5.5995 2 5.24157 2 4.7998C2.00011 4.35813 2.35813 4.00011 2.7998 4H8.2002Z"/>
</mask>
<path d="M8.2002 4C8.64187 4.00011 8.99989 4.35813 9 4.7998C9 5.24157 8.64193 5.5995 8.2002 5.59961H8.125V17.375C8.125 18.8247 6.94975 20 5.5 20C4.05025 20 2.875 18.8247 2.875 17.375V5.59961H2.7998C2.35807 5.5995 2 5.24157 2 4.7998C2.00011 4.35813 2.35813 4.00011 2.7998 4H8.2002Z" fill="#2B2064"/>
<path d="M8.2002 4L8.20058 2.4H8.2002V4ZM9 4.7998H10.6V4.79942L9 4.7998ZM8.2002 5.59961V7.19961L8.20058 7.19961L8.2002 5.59961ZM8.125 5.59961V3.99961H6.525V5.59961H8.125ZM8.125 17.375H9.725H8.125ZM2.875 5.59961H4.475V3.99961H2.875V5.59961ZM2.7998 5.59961L2.79942 7.19961H2.7998V5.59961ZM2 4.7998L0.4 4.79942V4.7998H2ZM2.7998 4V2.4H2.79942L2.7998 4ZM8.2002 4L8.19981 5.6C7.75813 5.59989 7.40011 5.24187 7.4 4.80019L9 4.7998L10.6 4.79942C10.5997 3.47439 9.52561 2.40032 8.20058 2.4L8.2002 4ZM9 4.7998H7.4C7.4 4.35753 7.75857 3.99971 8.19981 3.99961L8.2002 5.59961L8.20058 7.19961C9.52529 7.19929 10.6 6.1256 10.6 4.7998H9ZM8.2002 5.59961V3.99961H8.125V5.59961V7.19961H8.2002V5.59961ZM8.125 5.59961H6.525V17.375H8.125H9.725V5.59961H8.125ZM8.125 17.375H6.525C6.525 17.9411 6.06609 18.4 5.5 18.4V20V21.6C7.8334 21.6 9.725 19.7084 9.725 17.375H8.125ZM5.5 20V18.4C4.93391 18.4 4.475 17.9411 4.475 17.375H2.875H1.275C1.275 19.7084 3.1666 21.6 5.5 21.6V20ZM2.875 17.375H4.475V5.59961H2.875H1.275V17.375H2.875ZM2.875 5.59961V3.99961H2.7998V5.59961V7.19961H2.875V5.59961ZM2.7998 5.59961L2.80019 3.99961C3.24143 3.99971 3.6 4.35753 3.6 4.7998H2H0.4C0.4 6.1256 1.47471 7.19929 2.79942 7.19961L2.7998 5.59961ZM2 4.7998L3.6 4.80019C3.59989 5.24187 3.24187 5.59989 2.80019 5.6L2.7998 4L2.79942 2.4C1.47439 2.40032 0.400317 3.47439 0.4 4.79942L2 4.7998ZM2.7998 4V5.6H8.2002V4V2.4H2.7998V4Z" fill="white" mask="url(#path-3-outside-1_1_796)"/>
<path d="M6.5 10.8C6.94183 10.8 7.3 10.4418 7.3 10C7.3 9.55817 6.94183 9.2 6.5 9.2V10.8ZM2 10V10.8H6.5V10V9.2H2V10Z" fill="white"/>
</svg>
