<svg width="18" height="18" viewBox="0 0 18 18" fill="none" xmlns="http://www.w3.org/2000/svg">
<path d="M4.04167 16.0833C3.65208 16.0833 3.31858 15.9446 3.04115 15.6672C2.76372 15.3897 2.625 15.0562 2.625 14.6667V6.6802C2.4125 6.55034 2.24132 6.38211 2.11146 6.17551C1.9816 5.96891 1.91667 5.72985 1.91667 5.45832V3.33332C1.91667 2.94374 2.05538 2.61023 2.33281 2.3328C2.61024 2.05537 2.94375 1.91666 3.33333 1.91666H14.6667C15.0563 1.91666 15.3898 2.05537 15.6672 2.3328C15.9446 2.61023 16.0833 2.94374 16.0833 3.33332V5.45832C16.0833 5.72985 16.0184 5.96891 15.8885 6.17551C15.7587 6.38211 15.5875 6.55034 15.375 6.6802V14.6667C15.375 15.0562 15.2363 15.3897 14.9589 15.6672C14.6814 15.9446 14.3479 16.0833 13.9583 16.0833H4.04167ZM4.04167 6.87499V14.6667H13.9583V6.87499H4.04167ZM3.33333 5.45832H14.6667V3.33332H3.33333V5.45832ZM6.875 10.4167H11.125V8.99999H6.875V10.4167Z" fill="#2B2064"/>
</svg>
