<svg width="20" height="20" viewBox="0 0 20 20" fill="none" xmlns="http://www.w3.org/2000/svg">
<g clip-path="url(#clip0_1_60)">
<path d="M0.0841667 3.33333C0.471667 1.43417 2.155 0 4.16667 0H15.8333C17.845 0 19.5283 1.43417 19.9158 3.33333H0.0841667ZM20 5V15.8333C20 18.1308 18.1308 20 15.8333 20H4.16667C1.86917 20 0 18.1308 0 15.8333V5H20ZM2.5 8.33333C2.5 8.79333 2.8725 9.16667 3.33333 9.16667H7.5C7.96083 9.16667 8.33333 8.79333 8.33333 8.33333C8.33333 7.87333 7.96083 7.5 7.5 7.5H3.33333C2.8725 7.5 2.5 7.87333 2.5 8.33333ZM12.5 16.6667C12.5 16.2058 12.1275 15.8333 11.6667 15.8333H3.33333C2.8725 15.8333 2.5 16.2058 2.5 16.6667C2.5 17.1275 2.8725 17.5 3.33333 17.5H11.6667C12.1275 17.5 12.5 17.1275 12.5 16.6667ZM12.5 12.5C12.5 12.0392 12.1275 11.6667 11.6667 11.6667H5.83333C5.3725 11.6667 5 12.0392 5 12.5C5 12.9608 5.3725 13.3333 5.83333 13.3333H11.6667C12.1275 13.3333 12.5 12.9608 12.5 12.5ZM17.5 16.6667C17.5 16.0517 17.1625 15.52 16.6667 15.2308V10C16.6667 8.62167 15.545 7.5 14.1667 7.5H13.1025C12.8142 7.00417 12.2825 6.66667 11.6667 6.66667C10.7458 6.66667 10 7.4125 10 8.33333C10 9.25417 10.7458 10 11.6667 10C12.2817 10 12.8133 9.6625 13.1025 9.16667H14.1667C14.6267 9.16667 15 9.54083 15 10V15.2308C14.5042 15.5192 14.1667 16.0508 14.1667 16.6667C14.1667 17.5875 14.9125 18.3333 15.8333 18.3333C16.7542 18.3333 17.5 17.5875 17.5 16.6667Z" fill="white"/>
</g>
<defs>
<clipPath id="clip0_1_60">
<rect width="20" height="20" fill="white"/>
</clipPath>
</defs>
</svg>
