<svg width="20" height="20" viewBox="0 0 20 20" fill="none" xmlns="http://www.w3.org/2000/svg">
<g clip-path="url(#clip0_1_49)">
<path d="M19.7558 19.7558C19.5933 19.9183 19.38 20 19.1667 20C18.9533 20 18.74 19.9183 18.5775 19.7558L16.4608 17.6392C15.8017 18.0758 15.0142 18.3333 14.1667 18.3333C11.8692 18.3333 10 16.4642 10 14.1667C10 11.8692 11.8692 10 14.1667 10C16.4642 10 18.3333 11.8692 18.3333 14.1667C18.3333 15.0142 18.0758 15.8017 17.6392 16.4608L19.7558 18.5775C20.0817 18.9033 20.0817 19.43 19.7558 19.7558ZM7.5 10C10.2575 10 12.5 7.7575 12.5 5C12.5 2.2425 10.2575 0 7.5 0C4.7425 0 2.5 2.2425 2.5 5C2.5 7.7575 4.7425 10 7.5 10ZM8.33333 14.1667C8.33333 13.325 8.515 12.5275 8.83583 11.805C8.40083 11.7242 7.95833 11.6667 7.5 11.6667C3.36917 11.6667 0.0075014 15.0233 1.40489e-06 19.1525C-0.000831928 19.6167 0.369168 20 0.833335 20H14.1667C10.945 20 8.33333 17.3883 8.33333 14.1667Z" fill="#2B2064"/>
</g>
<defs>
<clipPath id="clip0_1_49">
<rect width="20" height="20" fill="white"/>
</clipPath>
</defs>
</svg>
