<svg width="14" height="10" viewBox="0 0 14 10" fill="none" xmlns="http://www.w3.org/2000/svg">
<path d="M4.5 2H12.5C12.6326 2 12.7598 1.94732 12.8536 1.85355C12.9473 1.75979 13 1.63261 13 1.5C13 1.36739 12.9473 1.24021 12.8536 1.14645C12.7598 1.05268 12.6326 1 12.5 1H4.5C4.36739 1 4.24021 1.05268 4.14645 1.14645C4.05268 1.24021 4 1.36739 4 1.5C4 1.63261 4.05268 1.75979 4.14645 1.85355C4.24021 1.94732 4.36739 2 4.5 2Z" fill="#2B2064" stroke="#2B2064" stroke-width="0.5"/>
<path d="M12.5 4.5H4.5C4.36739 4.5 4.24021 4.55268 4.14645 4.64645C4.05268 4.74021 4 4.86739 4 5C4 5.13261 4.05268 5.25979 4.14645 5.35355C4.24021 5.44732 4.36739 5.5 4.5 5.5H12.5C12.6326 5.5 12.7598 5.44732 12.8536 5.35355C12.9473 5.25979 13 5.13261 13 5C13 4.86739 12.9473 4.74021 12.8536 4.64645C12.7598 4.55268 12.6326 4.5 12.5 4.5Z" fill="#2B2064" stroke="#2B2064" stroke-width="0.5"/>
<path d="M12.5 8H4.5C4.36739 8 4.24021 8.05268 4.14645 8.14645C4.05268 8.24021 4 8.36739 4 8.5C4 8.63261 4.05268 8.75979 4.14645 8.85355C4.24021 8.94732 4.36739 9 4.5 9H12.5C12.6326 9 12.7598 8.94732 12.8536 8.85355C12.9473 8.75979 13 8.63261 13 8.5C13 8.36739 12.9473 8.24021 12.8536 8.14645C12.7598 8.05268 12.6326 8 12.5 8Z" fill="#2B2064" stroke="#2B2064" stroke-width="0.5"/>
<path d="M2 2.5C2.55228 2.5 3 2.05228 3 1.5C3 0.947715 2.55228 0.5 2 0.5C1.44772 0.5 1 0.947715 1 1.5C1 2.05228 1.44772 2.5 2 2.5Z" fill="#2B2064" stroke="#2B2064" stroke-width="0.5"/>
<path d="M2 6C2.55228 6 3 5.55228 3 5C3 4.44772 2.55228 4 2 4C1.44772 4 1 4.44772 1 5C1 5.55228 1.44772 6 2 6Z" fill="#2B2064" stroke="#2B2064" stroke-width="0.5"/>
<path d="M2 9.5C2.55228 9.5 3 9.05228 3 8.5C3 7.94772 2.55228 7.5 2 7.5C1.44772 7.5 1 7.94772 1 8.5C1 9.05228 1.44772 9.5 2 9.5Z" fill="#2B2064" stroke="#2B2064" stroke-width="0.5"/>
</svg>
