<svg width="18" height="18" viewBox="0 0 18 18" fill="none" xmlns="http://www.w3.org/2000/svg">
<g clip-path="url(#clip0_1_91)">
<path d="M8.02083 8.74999C7.21875 8.74999 6.53212 8.4644 5.96094 7.89322C5.38976 7.32204 5.10417 6.63541 5.10417 5.83332C5.10417 5.03124 5.38976 4.34461 5.96094 3.77343C6.53212 3.20225 7.21875 2.91666 8.02083 2.91666C8.82292 2.91666 9.50955 3.20225 10.0807 3.77343C10.6519 4.34461 10.9375 5.03124 10.9375 5.83332C10.9375 6.63541 10.6519 7.32204 10.0807 7.89322C9.50955 8.4644 8.82292 8.74999 8.02083 8.74999ZM8.02083 7.29166C8.42188 7.29166 8.76519 7.14886 9.05078 6.86327C9.33637 6.57768 9.47917 6.23436 9.47917 5.83332C9.47917 5.43228 9.33637 5.08897 9.05078 4.80338C8.76519 4.51778 8.42188 4.37499 8.02083 4.37499C7.61979 4.37499 7.27648 4.51778 6.99089 4.80338C6.7053 5.08897 6.5625 5.43228 6.5625 5.83332C6.5625 6.23436 6.7053 6.57768 6.99089 6.86327C7.27648 7.14886 7.61979 7.29166 8.02083 7.29166ZM16.1146 17.1354L13.7813 14.8021C13.526 14.9479 13.2526 15.0694 12.9609 15.1667C12.6693 15.2639 12.3594 15.3125 12.0313 15.3125C11.1198 15.3125 10.3451 14.9935 9.70703 14.3555C9.06901 13.7174 8.75 12.9427 8.75 12.0312C8.75 11.1198 9.06901 10.345 9.70703 9.70702C10.3451 9.069 11.1198 8.74999 12.0313 8.74999C12.9427 8.74999 13.7175 9.069 14.3555 9.70702C14.9935 10.345 15.3125 11.1198 15.3125 12.0312C15.3125 12.3594 15.2639 12.6693 15.1667 12.9609C15.0694 13.2526 14.9479 13.526 14.8021 13.7812L17.1354 16.1146L16.1146 17.1354ZM12.0313 13.8542C12.5417 13.8542 12.9731 13.6779 13.3255 13.3255C13.678 12.9731 13.8542 12.5417 13.8542 12.0312C13.8542 11.5208 13.678 11.0894 13.3255 10.737C12.9731 10.3845 12.5417 10.2083 12.0313 10.2083C11.5208 10.2083 11.0894 10.3845 10.737 10.737C10.3846 11.0894 10.2083 11.5208 10.2083 12.0312C10.2083 12.5417 10.3846 12.9731 10.737 13.3255C11.0894 13.6779 11.5208 13.8542 12.0313 13.8542ZM2.1875 14.5833V12.5599C2.1875 12.1467 2.2908 11.7639 2.4974 11.4114C2.70399 11.059 2.98958 10.7917 3.35417 10.6094C3.97396 10.2934 4.67274 10.026 5.45052 9.80728C6.2283 9.58853 7.09115 9.47916 8.03906 9.47916C7.89323 9.69791 7.76866 9.93185 7.66537 10.181C7.56207 10.4301 7.48004 10.6884 7.41927 10.9557C6.6901 11.0165 6.03993 11.141 5.46875 11.3294C4.89757 11.5178 4.41754 11.7153 4.02865 11.9219C3.90712 11.9826 3.81293 12.0707 3.74609 12.1862C3.67925 12.3016 3.64583 12.4262 3.64583 12.5599V13.125H7.41927C7.48004 13.3924 7.56207 13.6476 7.66537 13.8906C7.76866 14.1337 7.89323 14.3646 8.03906 14.5833H2.1875Z" fill="#2B2064"/>
</g>
<defs>
<clipPath id="clip0_1_91">
<rect width="17.5" height="17.5" fill="white"/>
</clipPath>
</defs>
</svg>
