<svg width="20" height="20" viewBox="0 0 20 20" fill="none" xmlns="http://www.w3.org/2000/svg">
<g clip-path="url(#clip0_1_55)">
<path d="M19.3899 18.3633C18.5124 18.1199 18.0858 17.6741 18.0424 17.6283C17.5574 17.1433 17.2258 16.4891 17.1066 15.7849C16.8774 14.4299 15.8533 13.4066 14.4974 13.1766C13.7941 13.0574 13.1399 12.7258 12.6549 12.2408C12.1699 11.7558 11.8383 11.1016 11.7191 10.3983C11.5058 9.1366 10.5583 8.16744 9.18409 7.80494C8.31659 7.5766 8.00076 7.24994 7.52326 6.75577C8.03243 6.1066 8.31909 5.37744 8.33326 4.6116C8.35159 3.60744 7.91243 2.62827 7.06326 1.77994C5.42993 0.146604 2.11409 -0.680895 0.716594 0.716604C-0.680906 2.1141 0.147427 5.42994 1.78076 7.06327C2.61326 7.89577 3.56993 8.33327 4.55243 8.33327C5.15159 8.3341 5.72659 8.15744 6.26243 7.8516C6.85909 8.4641 7.38993 9.0516 8.75826 9.4166C9.10576 9.50827 9.92993 9.8141 10.0749 10.6758C10.2508 11.7174 10.7483 12.6916 11.4758 13.4191C12.2033 14.1466 13.1783 14.6449 14.2191 14.8208C14.8649 14.9299 15.3524 15.4174 15.4616 16.0624C15.6374 17.1041 16.1358 18.0791 16.8308 18.7716C16.9041 18.8549 17.5924 19.5933 18.9433 19.9699C19.3749 20.0924 19.8474 19.8374 19.9691 19.3899C20.0916 18.9466 19.8324 18.4874 19.3891 18.3641L19.3899 18.3633ZM10.1574 18.3474C9.95576 18.3091 9.64159 18.0741 9.49409 17.9299C9.21743 17.6533 9.02826 17.2791 8.95993 16.8758C8.78909 15.8641 8.02493 15.0999 7.01243 14.9283C6.66743 14.8699 6.33659 14.7116 6.07576 14.4933C6.44493 13.9899 6.65576 13.4183 6.66576 12.8374C6.67576 12.2716 6.50826 11.4183 5.65243 10.5624C5.01993 9.92994 4.10826 9.4541 3.15159 9.25827C2.07243 9.0366 1.14159 9.2216 0.59826 9.76494C-0.547573 10.9108 0.0790936 13.5024 1.39659 14.8191C2.22909 15.6516 3.05909 15.8333 3.62409 15.8333H3.67243C4.04993 15.8266 4.42493 15.7358 4.77993 15.5733C4.77993 15.5733 4.77993 15.5741 4.78159 15.5749C5.30159 16.0949 5.99576 16.4499 6.73659 16.5741C7.04326 16.6258 7.26659 16.8483 7.31826 17.1549C7.44326 17.8966 7.79826 18.5916 8.31743 19.1099C8.43743 19.2308 9.07659 19.8383 9.84493 19.9866C10.2858 20.0733 10.7358 19.7799 10.8199 19.3249C10.9066 18.8733 10.6108 18.4366 10.1591 18.3491L10.1574 18.3474ZM10.5633 5.65244C11.2391 6.32827 12.0241 6.6666 12.8016 6.6666C13.3899 6.6666 13.9708 6.4641 14.4966 6.0741C14.7083 6.33244 14.8691 6.64077 14.9266 6.9841C15.0983 7.99494 15.8616 8.7591 16.8741 8.92994C17.2774 8.99827 17.6524 9.18827 17.9141 9.44994C18.1108 9.65827 18.3224 9.98244 18.3408 10.1033C18.3958 10.5616 18.8233 10.8849 19.2708 10.8266C19.7283 10.7691 20.0516 10.3524 19.9941 9.89577C19.9008 9.14827 19.2491 8.43494 19.1074 8.28577C18.5874 7.7666 17.8933 7.41244 17.1516 7.28744C16.8449 7.23577 16.6216 7.01244 16.5708 6.70744C16.4474 5.96994 16.0949 5.27994 15.5808 4.76244C16.0816 3.6591 15.8291 2.40577 14.8199 1.3966C13.5024 0.0799378 10.9116 -0.547562 9.76493 0.598271C9.22159 1.1416 9.03659 2.07244 9.25826 3.1516C9.45409 4.10827 9.93076 5.01994 10.5633 5.65244Z" fill="#2B2064"/>
</g>
<defs>
<clipPath id="clip0_1_55">
<rect width="20" height="20" fill="white"/>
</clipPath>
</defs>
</svg>
