<svg width="20" height="20" viewBox="0 0 20 20" fill="none" xmlns="http://www.w3.org/2000/svg">
<g clip-path="url(#clip0_1_66)">
<path d="M19.1667 9.16668H17.5V7.5C17.5 7.03977 17.1269 6.66668 16.6667 6.66668C16.2065 6.66668 15.8334 7.03977 15.8334 7.5V9.16668H14.1667C13.7065 9.16668 13.3334 9.53977 13.3334 10C13.3334 10.4602 13.7065 10.8333 14.1667 10.8333H15.8334V12.5C15.8334 12.9602 16.2065 13.3333 16.6667 13.3333C17.1269 13.3333 17.5 12.9602 17.5 12.5V10.8333H19.1667C19.6269 10.8333 20 10.4602 20 10C20 9.53977 19.6269 9.16668 19.1667 9.16668Z" fill="#2B2064"/>
<path d="M7.5 10C10.2614 10 12.5 7.76142 12.5 5C12.5 2.23858 10.2614 0 7.5 0C4.73858 0 2.5 2.23858 2.5 5C2.5 7.76142 4.73858 10 7.5 10Z" fill="#2B2064"/>
<path d="M7.5 11.6667C3.35977 11.6713 0.00460938 15.0264 0 19.1667C0 19.6269 0.373086 20 0.83332 20H14.1666C14.6269 20 15 19.6269 15 19.1667C14.9954 15.0264 11.6402 11.6712 7.5 11.6667Z" fill="#2B2064"/>
</g>
<defs>
<clipPath id="clip0_1_66">
<rect width="20" height="20" fill="white"/>
</clipPath>
</defs>
</svg>
