<svg width="10" height="12" viewBox="0 0 10 12" fill="none" xmlns="http://www.w3.org/2000/svg">
<path d="M5 6C5.59334 6 6.17336 5.82405 6.66671 5.49441C7.16006 5.16477 7.54458 4.69623 7.77164 4.14805C7.9987 3.59987 8.05811 2.99667 7.94236 2.41473C7.8266 1.83279 7.54088 1.29824 7.12132 0.878681C6.70176 0.459123 6.16721 0.173401 5.58527 0.0576455C5.00333 -0.0581102 4.40013 0.00129986 3.85195 0.228363C3.30377 0.455426 2.83524 0.839943 2.50559 1.33329C2.17595 1.82664 2 2.40666 2 3C2.00079 3.79541 2.31712 4.55801 2.87956 5.12044C3.44199 5.68288 4.20459 5.99921 5 6ZM5 1C5.39556 1 5.78224 1.1173 6.11114 1.33706C6.44004 1.55682 6.69638 1.86918 6.84776 2.23463C6.99913 2.60009 7.03874 3.00222 6.96157 3.39018C6.8844 3.77814 6.69392 4.13451 6.41421 4.41421C6.13451 4.69392 5.77814 4.8844 5.39018 4.96157C5.00222 5.03874 4.60009 4.99914 4.23463 4.84776C3.86918 4.69638 3.55682 4.44004 3.33706 4.11114C3.1173 3.78224 3 3.39556 3 3C3 2.46957 3.21071 1.96086 3.58579 1.58579C3.96086 1.21071 4.46957 1 5 1Z" fill="#852262"/>
<path d="M5 7C3.67437 7.00132 2.40345 7.47585 1.46609 8.31948C0.528727 9.16311 0.00147047 10.3069 0 11.5C0 11.6326 0.0585316 11.7598 0.162718 11.8536C0.266905 11.9473 0.408213 12 0.555556 12C0.702898 12 0.844206 11.9473 0.948393 11.8536C1.05258 11.7598 1.11111 11.6326 1.11111 11.5C1.11111 10.5717 1.52083 9.6815 2.25014 9.02513C2.97945 8.36875 3.9686 8 5 8C6.0314 8 7.02055 8.36875 7.74986 9.02513C8.47917 9.6815 8.88889 10.5717 8.88889 11.5C8.88889 11.6326 8.94742 11.7598 9.05161 11.8536C9.15579 11.9473 9.2971 12 9.44444 12C9.59179 12 9.7331 11.9473 9.83728 11.8536C9.94147 11.7598 10 11.6326 10 11.5C9.99853 10.3069 9.47127 9.16311 8.53391 8.31948C7.59655 7.47585 6.32563 7.00132 5 7Z" fill="#852262"/>
</svg>
