<svg width="17" height="18" viewBox="0 0 17 18" fill="none" xmlns="http://www.w3.org/2000/svg">
<path d="M7.79166 12.5417H9.20833V9.70835H12.0417V8.29169H9.20833V5.45835H7.79166V8.29169H4.95833V9.70835H7.79166V12.5417ZM8.5 16.0834C7.52014 16.0834 6.5993 15.8974 5.7375 15.5255C4.87569 15.1537 4.12604 14.649 3.48854 14.0115C2.85104 13.374 2.34635 12.6243 1.97448 11.7625C1.6026 10.9007 1.41666 9.97988 1.41666 9.00002C1.41666 8.02016 1.6026 7.09933 1.97448 6.23752C2.34635 5.37571 2.85104 4.62606 3.48854 3.98856C4.12604 3.35106 4.87569 2.84637 5.7375 2.4745C6.5993 2.10262 7.52014 1.91669 8.5 1.91669C9.47986 1.91669 10.4007 2.10262 11.2625 2.4745C12.1243 2.84637 12.874 3.35106 13.5115 3.98856C14.149 4.62606 14.6536 5.37571 15.0255 6.23752C15.3974 7.09933 15.5833 8.02016 15.5833 9.00002C15.5833 9.97988 15.3974 10.9007 15.0255 11.7625C14.6536 12.6243 14.149 13.374 13.5115 14.0115C12.874 14.649 12.1243 15.1537 11.2625 15.5255C10.4007 15.8974 9.47986 16.0834 8.5 16.0834ZM8.5 14.6667C10.0819 14.6667 11.4219 14.1177 12.5198 13.0198C13.6177 11.9219 14.1667 10.582 14.1667 9.00002C14.1667 7.41808 13.6177 6.07815 12.5198 4.98023C11.4219 3.88231 10.0819 3.33335 8.5 3.33335C6.91805 3.33335 5.57812 3.88231 4.48021 4.98023C3.38229 6.07815 2.83333 7.41808 2.83333 9.00002C2.83333 10.582 3.38229 11.9219 4.48021 13.0198C5.57812 14.1177 6.91805 14.6667 8.5 14.6667Z" fill="#2B2064"/>
</svg>
