<svg width="20" height="20" viewBox="0 0 20 20" fill="none" xmlns="http://www.w3.org/2000/svg">
<g clip-path="url(#clip0_1_790)">
<path d="M0 8.33334V15C0 17.2975 1.86917 19.1667 4.16667 19.1667H15.8333C18.1308 19.1667 20 17.2975 20 15V8.33334H0ZM7.5 15.8333C7.5 16.2942 7.12667 16.6667 6.66667 16.6667C6.20667 16.6667 5.83333 16.2942 5.83333 15.8333V14.1667C5.83333 13.7058 6.20667 13.3333 6.66667 13.3333C7.12667 13.3333 7.5 13.7058 7.5 14.1667V15.8333ZM10.8333 15.8333C10.8333 16.2942 10.46 16.6667 10 16.6667C9.54 16.6667 9.16667 16.2942 9.16667 15.8333V10.8333C9.16667 10.3725 9.54 10 10 10C10.46 10 10.8333 10.3725 10.8333 10.8333V15.8333ZM14.1667 15.8333C14.1667 16.2942 13.7933 16.6667 13.3333 16.6667C12.8733 16.6667 12.5 16.2942 12.5 15.8333V12.5C12.5 12.0392 12.8733 11.6667 13.3333 11.6667C13.7933 11.6667 14.1667 12.0392 14.1667 12.5V15.8333ZM15.8333 0.833336H4.16667C1.86917 0.833336 0 2.7025 0 5V6.66667H20V5C20 2.7025 18.1308 0.833336 15.8333 0.833336ZM3.75 5C3.06 5 2.5 4.44 2.5 3.75C2.5 3.06 3.06 2.5 3.75 2.5C4.44 2.5 5 3.06 5 3.75C5 4.44 4.44 5 3.75 5ZM7.08333 5C6.39333 5 5.83333 4.44 5.83333 3.75C5.83333 3.06 6.39333 2.5 7.08333 2.5C7.77333 2.5 8.33333 3.06 8.33333 3.75C8.33333 4.44 7.77333 5 7.08333 5Z" fill="#2B2064"/>
</g>
<defs>
<clipPath id="clip0_1_790">
<rect width="20" height="20" fill="white"/>
</clipPath>
</defs>
</svg>
