<svg width="20" height="20" viewBox="0 0 20 20" fill="none" xmlns="http://www.w3.org/2000/svg">
<g clip-path="url(#clip0_1_64)">
<path d="M16.6667 0H3.33337C2.67033 0 2.03445 0.263392 1.56561 0.732233C1.09677 1.20107 0.833374 1.83696 0.833374 2.5V20H19.1667V2.5C19.1667 1.83696 18.9033 1.20107 18.4345 0.732233C17.9656 0.263392 17.3298 0 16.6667 0ZM5.83337 15.8333H4.16671V14.1667H5.83337V15.8333ZM5.83337 12.5H4.16671V10.8333H5.83337V12.5ZM9.16671 15.8333H7.50004V14.1667H9.16671V15.8333ZM9.16671 12.5H7.50004V10.8333H9.16671V12.5ZM15.8334 15.8333H10.8334V14.1667H15.8334V15.8333ZM10.8334 12.5V10.8333H12.5V12.5H10.8334ZM15.8334 12.5H14.1667V10.8333H15.8334V12.5ZM15.8334 8.33333H4.16671V3.33333H15.8334V8.33333ZM14.1667 6.66667H5.83337V5H14.1667V6.66667Z" fill="#2B2064"/>
</g>
<defs>
<clipPath id="clip0_1_64">
<rect width="20" height="20" fill="white"/>
</clipPath>
</defs>
</svg>
