<svg width="20" height="20" viewBox="0 0 20 20" fill="none" xmlns="http://www.w3.org/2000/svg">
<g clip-path="url(#clip0_1_62)">
<path d="M13.75 14.1667C13.6091 14.1667 13.4708 14.1633 13.3333 14.16V11.6358C13.4733 11.6392 13.6091 11.645 13.7541 11.6458C16.1741 11.6392 17.9741 11.25 19.1566 10.49C19.1508 12.6692 19.1483 11.1883 19.1666 11.6767C19.0916 13.56 16.8008 14.1583 13.75 14.1667ZM13.75 5.83333C16.8016 5.825 19.0916 5.22666 19.1666 3.34416C19.0983 1.535 16.7908 0.863331 13.75 0.854164C10.6983 0.863331 8.40498 1.49666 8.33331 3.34416C8.40831 5.22166 10.71 5.82583 13.75 5.83333ZM13.7541 7.47916C13.57 7.47916 13.3958 7.47166 13.2191 7.46666C13.285 7.73333 13.3225 8.00083 13.3325 8.26L13.3266 9.99333C13.4666 9.99667 13.6066 9.99916 13.75 10C16.8016 9.99166 19.0916 9.39333 19.1666 7.51C19.1483 7.02166 19.1508 8.5025 19.1566 6.32333C17.9741 7.08333 16.175 7.4725 13.7541 7.47916ZM11.6566 11.3442C10.4741 12.1042 8.67498 12.4933 6.25415 12.5C3.83831 12.4933 2.04165 12.1067 0.85748 11.3533C0.868313 13.3042 0.871646 11.5317 0.833313 12.5317C0.908313 14.4092 3.20998 15.0133 6.24998 15.0217C9.30165 15.0133 11.5916 14.415 11.6666 12.5317C11.6483 12.0433 11.6508 13.5242 11.6566 11.345V11.3442ZM6.24998 10.8333C9.30165 10.825 11.5916 10.2267 11.6666 8.34416C11.5983 6.535 9.29081 5.86333 6.24998 5.85416C3.19831 5.86333 0.90498 6.49666 0.833313 8.34416C0.908313 10.2217 3.20998 10.8258 6.24998 10.8333ZM11.6566 15.49C10.4741 16.25 8.67498 16.6392 6.25415 16.6458C3.83831 16.6392 2.04165 16.2525 0.85748 15.4992C0.85748 15.4992 0.871646 15.6775 0.833313 16.6775C0.908313 18.555 3.20998 19.1592 6.24998 19.1675C9.30165 19.1592 11.5916 18.5608 11.6666 16.6775C11.6483 16.1892 11.6566 15.4908 11.6566 15.4908V15.49ZM19.1566 14.6567C17.9741 15.4167 16.175 15.8058 13.7541 15.8125C13.7525 15.8125 13.7516 15.8125 13.75 15.8125C13.6025 15.8125 13.465 15.8058 13.3225 15.8025C13.315 16.0158 13.3275 16.5375 13.3325 16.7433C13.3091 17.3308 13.1716 17.8517 12.9333 18.3133C13.1991 18.3242 13.47 18.3325 13.75 18.3333C16.8016 18.325 19.0916 17.7267 19.1666 15.8433C19.1483 15.355 19.1508 16.8358 19.1566 14.6567Z" fill="#2B2064"/>
</g>
<defs>
<clipPath id="clip0_1_62">
<rect width="20" height="20" fill="white"/>
</clipPath>
</defs>
</svg>
