<svg width="20" height="20" viewBox="0 0 20 20" fill="none" xmlns="http://www.w3.org/2000/svg">
<path d="M11.6666 5.83333V0.383333C12.4275 0.671667 13.1275 1.11583 13.7208 1.70833L16.6241 4.61333C17.2175 5.20583 17.6616 5.90583 17.95 6.66667H12.5C12.04 6.66667 11.6666 6.2925 11.6666 5.83333ZM18.3133 8.33333H12.5C11.1216 8.33333 9.99996 7.21167 9.99996 5.83333V0.02C9.86579 0.0108333 9.73163 0 9.59579 0H5.83329C3.53579 0 1.66663 1.86917 1.66663 4.16667V11.6667H4.97079L6.38996 9.5375C6.55413 9.29083 6.84163 9.14333 7.13496 9.16833C7.43163 9.18667 7.69579 9.36167 7.82913 9.6275L9.68663 13.3433L10.5566 12.0383C10.7116 11.8067 10.9716 11.6675 11.25 11.6675H15C15.46 11.6675 15.8333 12.0408 15.8333 12.5008C15.8333 12.9608 15.46 13.3342 15 13.3342H11.6958L10.2766 15.4633C10.1216 15.6958 9.86079 15.8342 9.58329 15.8342C9.56579 15.8342 9.54829 15.8342 9.53163 15.8325C9.23496 15.8142 8.97079 15.6392 8.83746 15.3733L6.97996 11.6575L6.10996 12.9625C5.95496 13.1942 5.69496 13.3333 5.41663 13.3333H1.66663V15.8333C1.66663 18.1308 3.53579 20 5.83329 20H14.1666C16.4641 20 18.3333 18.1308 18.3333 15.8333V8.7375C18.3333 8.60167 18.3225 8.4675 18.3133 8.33333Z" fill="#2B2064"/>
</svg>
