<svg width="20" height="20" viewBox="0 0 20 20" fill="none" xmlns="http://www.w3.org/2000/svg">
<g clip-path="url(#clip0_1_792)">
<path d="M14.1667 0H5.83333C4.455 0 3.33333 1.12167 3.33333 2.5V20H16.6667V2.5C16.6667 1.12167 15.545 0 14.1667 0ZM9.16667 15.8333H6.66667V14.1667H9.16667V15.8333ZM9.16667 12.5H6.66667V10.8333H9.16667V12.5ZM7.5 6.66667V5H9.16667V3.33333H10.8333V5H12.5V6.66667H10.8333V8.33333H9.16667V6.66667H7.5ZM13.3333 15.8333H10.8333V14.1667H13.3333V15.8333ZM13.3333 12.5H10.8333V10.8333H13.3333V12.5ZM20 7.5V20H18.3333V5.15333C19.3008 5.49833 20 6.415 20 7.5ZM1.66667 5.15333V20H0V7.5C0 6.415 0.699167 5.49833 1.66667 5.15333Z" fill="#2B2064"/>
</g>
<defs>
<clipPath id="clip0_1_792">
<rect width="20" height="20" fill="white"/>
</clipPath>
</defs>
</svg>
