<svg width="18" height="18" viewBox="0 0 18 18" fill="none" xmlns="http://www.w3.org/2000/svg">
<path d="M11.3021 14.5286L8.20313 11.4297L9.22396 10.4088L11.3021 12.487L15.4219 8.36718L16.4427 9.38801L11.3021 14.5286ZM15.3125 7.29166H13.8542V3.64582H12.3958V5.83332H5.10417V3.64582H3.64583V13.8542H8.02083V15.3125H3.64583C3.24479 15.3125 2.90148 15.1697 2.61589 14.8841C2.3303 14.5985 2.1875 14.2552 2.1875 13.8542V3.64582C2.1875 3.24478 2.3303 2.90147 2.61589 2.61588C2.90148 2.33028 3.24479 2.18749 3.64583 2.18749H6.6901C6.82379 1.76214 7.08507 1.41275 7.47396 1.13931C7.86285 0.865875 8.2882 0.729156 8.75 0.729156C9.23611 0.729156 9.67057 0.865875 10.0534 1.13931C10.4362 1.41275 10.6944 1.76214 10.8281 2.18749H13.8542C14.2552 2.18749 14.5985 2.33028 14.8841 2.61588C15.1697 2.90147 15.3125 3.24478 15.3125 3.64582V7.29166ZM8.75 3.64582C8.9566 3.64582 9.12978 3.57594 9.26953 3.43619C9.40929 3.29643 9.47917 3.12325 9.47917 2.91666C9.47917 2.71006 9.40929 2.53688 9.26953 2.39713C9.12978 2.25737 8.9566 2.18749 8.75 2.18749C8.5434 2.18749 8.37023 2.25737 8.23047 2.39713C8.09071 2.53688 8.02083 2.71006 8.02083 2.91666C8.02083 3.12325 8.09071 3.29643 8.23047 3.43619C8.37023 3.57594 8.5434 3.64582 8.75 3.64582Z" fill="#2B2064"/>
</svg>
