<svg width="18" height="18" viewBox="0 0 18 18" fill="none" xmlns="http://www.w3.org/2000/svg">
<path d="M6.16667 9.00002V7.58335H11.8333V9.00002H6.16667ZM6.16667 6.16669V4.75002H11.8333V6.16669H6.16667ZM4.75 10.4167H10.0625C10.4049 10.4167 10.7236 10.4905 11.0187 10.638C11.3139 10.7856 11.5618 10.9952 11.7625 11.2667L13.25 13.2146V3.33335H4.75V10.4167ZM4.75 14.6667H12.5771L10.6469 12.1344C10.576 12.04 10.4905 11.9662 10.3901 11.913C10.2898 11.8599 10.1806 11.8334 10.0625 11.8334H4.75V14.6667ZM13.25 16.0834H4.75C4.36042 16.0834 4.02691 15.9446 3.74948 15.6672C3.47205 15.3898 3.33333 15.0563 3.33333 14.6667V3.33335C3.33333 2.94377 3.47205 2.61026 3.74948 2.33283C4.02691 2.0554 4.36042 1.91669 4.75 1.91669H13.25C13.6396 1.91669 13.9731 2.0554 14.2505 2.33283C14.528 2.61026 14.6667 2.94377 14.6667 3.33335V14.6667C14.6667 15.0563 14.528 15.3898 14.2505 15.6672C13.9731 15.9446 13.6396 16.0834 13.25 16.0834Z" fill="#2B2064"/>
</svg>
